<mxfile host="app.diagrams.net" agent="Mozilla/5.0 (Windows NT 10.0; Win64; x64) AppleWebKit/537.36 (KHTML, like Gecko) Chrome/138.0.0.0 Safari/537.36" version="27.0.5">
  <diagram name="Page-1" id="Gvh0o1rgWE31a1v0khyk">
    <mxGraphModel dx="1188" dy="619" grid="1" gridSize="10" guides="1" tooltips="1" connect="1" arrows="1" fold="1" page="1" pageScale="1" pageWidth="1654" pageHeight="1169" math="0" shadow="0">
      <root>
        <mxCell id="0" />
        <mxCell id="1" parent="0" />
        <mxCell id="comtehSHx23xVTa-2Klb-32" value="" style="endArrow=none;html=1;rounded=0;exitX=0.5;exitY=0;exitDx=0;exitDy=0;entryX=0.5;entryY=1;entryDx=0;entryDy=0;strokeColor=#FF8000;strokeWidth=3;opacity=30;fontFamily=Helvetica;fontSize=14;" edge="1" parent="1" source="comtehSHx23xVTa-2Klb-2" target="comtehSHx23xVTa-2Klb-8">
          <mxGeometry width="50" height="50" relative="1" as="geometry">
            <mxPoint x="657" y="370" as="sourcePoint" />
            <mxPoint x="717" y="220" as="targetPoint" />
          </mxGeometry>
        </mxCell>
        <mxCell id="comtehSHx23xVTa-2Klb-33" value="" style="endArrow=none;html=1;rounded=0;exitX=0.5;exitY=1;exitDx=0;exitDy=0;entryX=0.5;entryY=0;entryDx=0;entryDy=0;strokeColor=#FF8000;strokeWidth=3;opacity=30;fontFamily=Helvetica;fontSize=14;" edge="1" parent="1" source="comtehSHx23xVTa-2Klb-9" target="comtehSHx23xVTa-2Klb-3">
          <mxGeometry width="50" height="50" relative="1" as="geometry">
            <mxPoint x="357" y="220" as="sourcePoint" />
            <mxPoint x="417" y="370" as="targetPoint" />
          </mxGeometry>
        </mxCell>
        <mxCell id="comtehSHx23xVTa-2Klb-34" value="" style="endArrow=none;html=1;rounded=0;exitX=0.5;exitY=1;exitDx=0;exitDy=0;entryX=0.5;entryY=0;entryDx=0;entryDy=0;strokeColor=#9673a6;strokeWidth=3;opacity=70;fillColor=#e1d5e7;fontFamily=Helvetica;fontSize=14;" edge="1" parent="1" source="comtehSHx23xVTa-2Klb-12" target="comtehSHx23xVTa-2Klb-14">
          <mxGeometry width="50" height="50" relative="1" as="geometry">
            <mxPoint x="160" y="160" as="sourcePoint" />
            <mxPoint x="220" y="310" as="targetPoint" />
          </mxGeometry>
        </mxCell>
        <mxCell id="comtehSHx23xVTa-2Klb-18" value="" style="edgeStyle=orthogonalEdgeStyle;rounded=0;orthogonalLoop=1;jettySize=auto;html=1;entryX=0.25;entryY=1;entryDx=0;entryDy=0;fillColor=#fff2cc;strokeColor=#FF8000;strokeWidth=3;fontFamily=Helvetica;fontSize=14;exitX=0.5;exitY=0;exitDx=0;exitDy=0;" edge="1" parent="1" source="comtehSHx23xVTa-2Klb-2" target="comtehSHx23xVTa-2Klb-4">
          <mxGeometry relative="1" as="geometry">
            <Array as="points">
              <mxPoint x="413" y="350" />
              <mxPoint x="480" y="350" />
            </Array>
          </mxGeometry>
        </mxCell>
        <mxCell id="comtehSHx23xVTa-2Klb-2" value="&lt;b&gt;WP1&lt;/b&gt;: Natural Capital Accounting" style="rounded=1;whiteSpace=wrap;html=1;fillColor=#FFB366;strokeColor=#BD7000;fontColor=#000000;strokeWidth=3;fontFamily=Helvetica;fontSize=14;" vertex="1" parent="1">
          <mxGeometry x="307" y="360" width="212" height="40" as="geometry" />
        </mxCell>
        <mxCell id="comtehSHx23xVTa-2Klb-19" value="" style="edgeStyle=orthogonalEdgeStyle;rounded=0;orthogonalLoop=1;jettySize=auto;html=1;entryX=0.75;entryY=1;entryDx=0;entryDy=0;fillColor=#fff2cc;strokeColor=#FF8000;strokeWidth=3;fontFamily=Helvetica;fontSize=14;exitX=0.5;exitY=0;exitDx=0;exitDy=0;" edge="1" parent="1" source="comtehSHx23xVTa-2Klb-3" target="comtehSHx23xVTa-2Klb-4">
          <mxGeometry relative="1" as="geometry">
            <Array as="points">
              <mxPoint x="653" y="350" />
              <mxPoint x="586" y="350" />
            </Array>
          </mxGeometry>
        </mxCell>
        <mxCell id="comtehSHx23xVTa-2Klb-3" value="&lt;b&gt;WP2&lt;/b&gt;: Online Smart Environmental Monitoring System" style="rounded=1;whiteSpace=wrap;html=1;fillColor=#FFB366;strokeColor=#BD7000;fontColor=#000000;strokeWidth=3;fontFamily=Helvetica;fontSize=14;" vertex="1" parent="1">
          <mxGeometry x="547" y="360" width="212" height="40" as="geometry" />
        </mxCell>
        <mxCell id="comtehSHx23xVTa-2Klb-15" value="" style="edgeStyle=orthogonalEdgeStyle;rounded=0;orthogonalLoop=1;jettySize=auto;html=1;entryX=0.5;entryY=1;entryDx=0;entryDy=0;fillColor=#fff2cc;strokeColor=#FF8000;strokeWidth=3;fontFamily=Helvetica;fontSize=14;" edge="1" parent="1" source="comtehSHx23xVTa-2Klb-4" target="comtehSHx23xVTa-2Klb-5">
          <mxGeometry relative="1" as="geometry" />
        </mxCell>
        <mxCell id="comtehSHx23xVTa-2Klb-4" value="&lt;b&gt;WP3&lt;/b&gt;: Quantify Natural Capital" style="rounded=1;whiteSpace=wrap;html=1;fillColor=#FFB366;strokeColor=#BD7000;fontColor=#000000;strokeWidth=3;fontFamily=Helvetica;fontSize=14;" vertex="1" parent="1">
          <mxGeometry x="427" y="290" width="212" height="40" as="geometry" />
        </mxCell>
        <mxCell id="comtehSHx23xVTa-2Klb-16" value="" style="edgeStyle=orthogonalEdgeStyle;rounded=0;orthogonalLoop=1;jettySize=auto;html=1;entryX=0.5;entryY=1;entryDx=0;entryDy=0;fillColor=#fff2cc;strokeColor=#FF8000;strokeWidth=3;fontFamily=Helvetica;fontSize=14;" edge="1" parent="1" source="comtehSHx23xVTa-2Klb-5" target="comtehSHx23xVTa-2Klb-6">
          <mxGeometry relative="1" as="geometry" />
        </mxCell>
        <mxCell id="comtehSHx23xVTa-2Klb-5" value="&lt;b&gt;WP4&lt;/b&gt;: Natural Capital Asset &lt;br&gt;and Risk Register" style="rounded=1;whiteSpace=wrap;html=1;fillColor=#FFB366;strokeColor=#BD7000;fontColor=#000000;strokeWidth=3;fontFamily=Helvetica;fontSize=14;" vertex="1" parent="1">
          <mxGeometry x="427" y="220" width="212" height="40" as="geometry" />
        </mxCell>
        <mxCell id="comtehSHx23xVTa-2Klb-17" value="" style="edgeStyle=orthogonalEdgeStyle;rounded=0;orthogonalLoop=1;jettySize=auto;html=1;fillColor=#fff2cc;strokeColor=#FF8000;strokeWidth=3;fontFamily=Helvetica;fontSize=14;" edge="1" parent="1" source="comtehSHx23xVTa-2Klb-6" target="comtehSHx23xVTa-2Klb-7">
          <mxGeometry relative="1" as="geometry" />
        </mxCell>
        <mxCell id="comtehSHx23xVTa-2Klb-6" value="&lt;b&gt;WP5&lt;/b&gt;: Sectoral Biodiversity Action Plan" style="rounded=1;whiteSpace=wrap;html=1;fillColor=#FFB366;strokeColor=#BD7000;fontColor=#000000;strokeWidth=3;fontFamily=Helvetica;fontSize=14;" vertex="1" parent="1">
          <mxGeometry x="427" y="150" width="212" height="40" as="geometry" />
        </mxCell>
        <mxCell id="comtehSHx23xVTa-2Klb-7" value="&lt;b&gt;WP6&lt;/b&gt;: Decision Support Tool" style="rounded=1;whiteSpace=wrap;html=1;fillColor=#FFB366;strokeColor=#BD7000;fontColor=#000000;strokeWidth=3;fontFamily=Helvetica;fontSize=14;" vertex="1" parent="1">
          <mxGeometry x="427" y="80" width="212" height="40" as="geometry" />
        </mxCell>
        <mxCell id="comtehSHx23xVTa-2Klb-8" value="&lt;b&gt;WP7&lt;/b&gt;: Industry-Acafemia Sectoral Training Programme" style="rounded=1;whiteSpace=wrap;html=1;rotation=90;fillColor=#FFB366;strokeColor=#BD7000;fontColor=#000000;strokeWidth=3;fontFamily=Helvetica;fontSize=14;" vertex="1" parent="1">
          <mxGeometry x="627" y="190" width="212" height="40" as="geometry" />
        </mxCell>
        <mxCell id="comtehSHx23xVTa-2Klb-9" value="&lt;b&gt;WP8&lt;/b&gt;: Management and Communication" style="rounded=1;whiteSpace=wrap;html=1;rotation=-90;fillColor=#FFB366;strokeColor=#BD7000;fontColor=#000000;strokeWidth=3;fontFamily=Helvetica;fontSize=14;" vertex="1" parent="1">
          <mxGeometry x="227" y="190" width="212" height="40" as="geometry" />
        </mxCell>
        <mxCell id="comtehSHx23xVTa-2Klb-10" value="Meetings of Project Team, Steering Committee and Stakeholder Group" style="rounded=1;whiteSpace=wrap;html=1;rotation=0;fillColor=#97D077;strokeColor=#009900;strokeWidth=3;fontFamily=Helvetica;fontSize=14;" vertex="1" parent="1">
          <mxGeometry x="70" y="185" width="200" height="50" as="geometry" />
        </mxCell>
        <mxCell id="comtehSHx23xVTa-2Klb-12" value="Steering Committee" style="rounded=1;whiteSpace=wrap;html=1;rotation=0;fillColor=#CC99FF;strokeColor=#7F00FF;strokeWidth=3;fontFamily=Helvetica;fontSize=14;" vertex="1" parent="1">
          <mxGeometry x="125" y="100" width="90" height="50" as="geometry" />
        </mxCell>
        <mxCell id="comtehSHx23xVTa-2Klb-14" value="Project Team" style="rounded=1;whiteSpace=wrap;html=1;rotation=0;fillColor=#CC99FF;strokeColor=#7F00FF;strokeWidth=3;fontFamily=Helvetica;fontSize=14;" vertex="1" parent="1">
          <mxGeometry x="125" y="270" width="90" height="70" as="geometry" />
        </mxCell>
        <mxCell id="comtehSHx23xVTa-2Klb-22" value="" style="endArrow=none;html=1;rounded=0;exitX=0.5;exitY=0;exitDx=0;exitDy=0;entryX=0.5;entryY=1;entryDx=0;entryDy=0;strokeColor=#FF8000;strokeWidth=3;opacity=30;fontFamily=Helvetica;fontSize=14;" edge="1" parent="1" source="comtehSHx23xVTa-2Klb-3" target="comtehSHx23xVTa-2Klb-8">
          <mxGeometry width="50" height="50" relative="1" as="geometry">
            <mxPoint x="650" y="360" as="sourcePoint" />
            <mxPoint x="700" y="310" as="targetPoint" />
          </mxGeometry>
        </mxCell>
        <mxCell id="comtehSHx23xVTa-2Klb-23" value="" style="endArrow=none;html=1;rounded=0;exitX=1;exitY=0.5;exitDx=0;exitDy=0;entryX=0.5;entryY=1;entryDx=0;entryDy=0;strokeColor=#FF8000;strokeWidth=3;opacity=30;fontFamily=Helvetica;fontSize=14;" edge="1" parent="1" source="comtehSHx23xVTa-2Klb-4" target="comtehSHx23xVTa-2Klb-8">
          <mxGeometry width="50" height="50" relative="1" as="geometry">
            <mxPoint x="657" y="370" as="sourcePoint" />
            <mxPoint x="717" y="220" as="targetPoint" />
          </mxGeometry>
        </mxCell>
        <mxCell id="comtehSHx23xVTa-2Klb-24" value="" style="endArrow=none;html=1;rounded=0;exitX=1;exitY=0.5;exitDx=0;exitDy=0;entryX=0.5;entryY=1;entryDx=0;entryDy=0;strokeColor=#FF8000;strokeWidth=3;opacity=30;fontFamily=Helvetica;fontSize=14;" edge="1" parent="1" source="comtehSHx23xVTa-2Klb-5" target="comtehSHx23xVTa-2Klb-8">
          <mxGeometry width="50" height="50" relative="1" as="geometry">
            <mxPoint x="637" y="320" as="sourcePoint" />
            <mxPoint x="727" y="230" as="targetPoint" />
          </mxGeometry>
        </mxCell>
        <mxCell id="comtehSHx23xVTa-2Klb-25" value="" style="endArrow=none;html=1;rounded=0;exitX=1;exitY=0.5;exitDx=0;exitDy=0;entryX=0.5;entryY=1;entryDx=0;entryDy=0;strokeColor=#FF8000;strokeWidth=3;opacity=30;fontFamily=Helvetica;fontSize=14;" edge="1" parent="1" source="comtehSHx23xVTa-2Klb-6" target="comtehSHx23xVTa-2Klb-8">
          <mxGeometry width="50" height="50" relative="1" as="geometry">
            <mxPoint x="637" y="250" as="sourcePoint" />
            <mxPoint x="737" y="240" as="targetPoint" />
          </mxGeometry>
        </mxCell>
        <mxCell id="comtehSHx23xVTa-2Klb-26" value="" style="endArrow=none;html=1;rounded=0;exitX=1;exitY=0.5;exitDx=0;exitDy=0;entryX=0.5;entryY=1;entryDx=0;entryDy=0;strokeColor=#FF8000;strokeWidth=3;opacity=30;fontFamily=Helvetica;fontSize=14;" edge="1" parent="1" source="comtehSHx23xVTa-2Klb-7" target="comtehSHx23xVTa-2Klb-8">
          <mxGeometry width="50" height="50" relative="1" as="geometry">
            <mxPoint x="637" y="180" as="sourcePoint" />
            <mxPoint x="747" y="250" as="targetPoint" />
          </mxGeometry>
        </mxCell>
        <mxCell id="comtehSHx23xVTa-2Klb-27" value="" style="endArrow=none;html=1;rounded=0;exitX=0.5;exitY=1;exitDx=0;exitDy=0;entryX=0;entryY=0.5;entryDx=0;entryDy=0;strokeColor=#FF8000;strokeWidth=3;opacity=30;fontFamily=Helvetica;fontSize=14;" edge="1" parent="1" source="comtehSHx23xVTa-2Klb-9" target="comtehSHx23xVTa-2Klb-7">
          <mxGeometry width="50" height="50" relative="1" as="geometry">
            <mxPoint x="637" y="110" as="sourcePoint" />
            <mxPoint x="717" y="220" as="targetPoint" />
          </mxGeometry>
        </mxCell>
        <mxCell id="comtehSHx23xVTa-2Klb-28" value="" style="endArrow=none;html=1;rounded=0;exitX=0.5;exitY=1;exitDx=0;exitDy=0;entryX=0.5;entryY=0;entryDx=0;entryDy=0;strokeColor=#FF8000;strokeWidth=3;opacity=30;fontFamily=Helvetica;fontSize=14;" edge="1" parent="1" source="comtehSHx23xVTa-2Klb-9" target="comtehSHx23xVTa-2Klb-2">
          <mxGeometry width="50" height="50" relative="1" as="geometry">
            <mxPoint x="357" y="220" as="sourcePoint" />
            <mxPoint x="437" y="110" as="targetPoint" />
          </mxGeometry>
        </mxCell>
        <mxCell id="comtehSHx23xVTa-2Klb-29" value="" style="endArrow=none;html=1;rounded=0;exitX=0.5;exitY=1;exitDx=0;exitDy=0;entryX=0;entryY=0.5;entryDx=0;entryDy=0;strokeColor=#FF8000;strokeWidth=3;opacity=30;fontFamily=Helvetica;fontSize=14;" edge="1" parent="1" source="comtehSHx23xVTa-2Klb-9" target="comtehSHx23xVTa-2Klb-6">
          <mxGeometry width="50" height="50" relative="1" as="geometry">
            <mxPoint x="367" y="230" as="sourcePoint" />
            <mxPoint x="447" y="120" as="targetPoint" />
          </mxGeometry>
        </mxCell>
        <mxCell id="comtehSHx23xVTa-2Klb-30" value="" style="endArrow=none;html=1;rounded=0;exitX=0.5;exitY=1;exitDx=0;exitDy=0;entryX=0;entryY=0.5;entryDx=0;entryDy=0;strokeColor=#FF8000;strokeWidth=3;opacity=30;fontFamily=Helvetica;fontSize=14;" edge="1" parent="1" source="comtehSHx23xVTa-2Klb-9" target="comtehSHx23xVTa-2Klb-5">
          <mxGeometry width="50" height="50" relative="1" as="geometry">
            <mxPoint x="377" y="240" as="sourcePoint" />
            <mxPoint x="457" y="130" as="targetPoint" />
          </mxGeometry>
        </mxCell>
        <mxCell id="comtehSHx23xVTa-2Klb-31" value="" style="endArrow=none;html=1;rounded=0;exitX=0.5;exitY=1;exitDx=0;exitDy=0;entryX=0;entryY=0.5;entryDx=0;entryDy=0;strokeColor=#FF8000;strokeWidth=3;opacity=30;fontFamily=Helvetica;fontSize=14;" edge="1" parent="1" source="comtehSHx23xVTa-2Klb-9" target="comtehSHx23xVTa-2Klb-4">
          <mxGeometry width="50" height="50" relative="1" as="geometry">
            <mxPoint x="387" y="250" as="sourcePoint" />
            <mxPoint x="467" y="140" as="targetPoint" />
          </mxGeometry>
        </mxCell>
        <mxCell id="comtehSHx23xVTa-2Klb-35" value="" style="endArrow=none;html=1;rounded=0;exitX=0.5;exitY=0;exitDx=0;exitDy=0;entryX=1;entryY=0.5;entryDx=0;entryDy=0;strokeColor=#82b366;strokeWidth=3;opacity=70;fillColor=#d5e8d4;fontFamily=Helvetica;fontSize=14;" edge="1" parent="1" source="comtehSHx23xVTa-2Klb-9" target="comtehSHx23xVTa-2Klb-10">
          <mxGeometry width="50" height="50" relative="1" as="geometry">
            <mxPoint x="180" y="170" as="sourcePoint" />
            <mxPoint x="180" y="290" as="targetPoint" />
          </mxGeometry>
        </mxCell>
      </root>
    </mxGraphModel>
  </diagram>
</mxfile>
